<svg width="160" height="160" viewBox="0 0 160 160" fill="none" xmlns="http://www.w3.org/2000/svg">
<path d="M80 160C124.183 160 160 124.183 160 80C160 35.8172 124.183 0 80 0C35.8172 0 0 35.8172 0 80C0 124.183 35.8172 160 80 160Z" fill="#00EF8B"/>
<path d="M79.9998 54.4002C79.9998 56.0976 79.3255 57.7254 78.1253 58.9257C76.9251 60.1259 75.2972 60.8002 73.5998 60.8002H28.7998V112H73.5998C75.2972 112 76.9251 111.326 78.1253 110.126C79.3255 108.925 79.9998 107.298 79.9998 105.6C79.9998 103.903 80.6741 102.275 81.8743 101.075C83.0746 99.8744 84.7024 99.2001 86.3998 99.2001H131.2V48.0002H86.3998C84.7024 48.0002 83.0746 48.6745 81.8743 49.8747C80.6741 51.0749 79.9998 52.7028 79.9998 54.4002Z" fill="#FDFBF9"/>
<path d="M80.0008 64.0253L64.0259 80.0002L80.0008 95.975L95.9758 80.0002L80.0008 64.0253Z" fill="#16FF99"/>
</svg>
