<svg width="18" height="18" viewBox="0 0 18 18" fill="none" xmlns="http://www.w3.org/2000/svg">
    <circle cx="9" cy="9" r="9" fill="#FEB204"/>
    <path d="M8.69304 6.59893C6.66739 6.59893 5 8.23706 5 10.2852C5 12.3191 6.66739 14 8.69304 14C10.7326 14 12.4 12.3191 12.4 10.2852C12.4 8.23706 10.7326 6.59893 8.69304 6.59893ZM8.69304 11.9519C7.81131 11.9519 7.10825 11.2175 7.10825 10.2852C7.10825 9.33914 7.81131 8.64707 8.69304 8.64707C9.57523 8.64707 10.2917 9.33914 10.2917 10.2852C10.2917 11.2175 9.57523 11.9519 8.69304 11.9519ZM5.41348 4.2402V5.79366C5.41348 5.92066 5.53739 6.04814 5.71652 6.04814H11.7526C11.9318 6.04814 12.0417 5.92066 12.0417 5.79366V4.2402C12.0417 4.127 11.9318 4 11.7526 4H5.71652C5.53739 4 5.41348 4.127 5.41348 4.2402Z" fill="#141414"/>
</svg>
