<svg width="160" height="160" viewBox="0 0 160 160" fill="none" xmlns="http://www.w3.org/2000/svg">
<path d="M80 160C124.183 160 160 124.183 160 80C160 35.8172 124.183 0 80 0C35.8172 0 0 35.8172 0 80C0 124.183 35.8172 160 80 160Z" fill="#00EF8B"/>
<path d="M115.103 67.4879H92.5107V90.0798H115.103V67.4879Z" fill="#FDFBF9"/>
<path d="M69.9359 98.5438C69.9359 100.221 69.4386 101.861 68.5068 103.255C67.575 104.65 66.2506 105.736 64.7011 106.378C63.1516 107.02 61.4465 107.188 59.8016 106.861C58.1566 106.534 56.6456 105.726 55.4597 104.54C54.2737 103.354 53.4661 101.843 53.1389 100.198C52.8117 98.5532 52.9796 96.8482 53.6214 95.2987C54.2633 93.7492 55.3502 92.4248 56.7447 91.493C58.1392 90.5612 59.7787 90.0638 61.4559 90.0638H69.9359V67.4879H61.4559C55.3136 67.4879 49.3093 69.3093 44.2021 72.7218C39.095 76.1342 35.1145 80.9845 32.7639 86.6592C30.4134 92.334 29.7983 98.5783 30.9966 104.603C32.195 110.627 35.1527 116.16 39.496 120.504C43.8393 124.847 49.3729 127.805 55.3972 129.003C61.4215 130.201 67.6658 129.586 73.3405 127.236C79.0153 124.885 83.8656 120.905 87.278 115.798C90.6905 110.69 92.5119 104.686 92.5119 98.5438V90.0638H69.9359V98.5438Z" fill="#FDFBF9"/>
<path d="M100.992 56.192H126.4V33.5999H100.992C92.7576 33.6084 84.8633 36.8831 79.041 42.7054C73.2187 48.5277 69.944 56.422 69.9355 64.656V67.4881H92.5115V64.656C92.5158 62.4098 93.4111 60.2569 95.0009 58.6701C96.5908 57.0832 98.7453 56.192 100.992 56.192V56.192Z" fill="#FDFBF9"/>
<path d="M69.9355 90.0638H92.5116V67.4879H69.9355V90.0638Z" fill="#16FF99"/>
</svg>
