<svg width="100%" height="" viewBox="0 0 1280 1280" fill="none" xmlns="http://www.w3.org/2000/svg">
<circle cx="640" cy="640" r="640" fill="#2775CA"/>
<path d="M815.998 741.33C815.998 647.999 759.998 615.999 647.998 602.668C567.998 591.999 551.998 570.668 551.998 533.33C551.998 495.993 578.667 471.999 631.998 471.999C679.998 471.999 706.667 487.999 719.998 527.999C722.667 535.999 730.667 541.33 738.667 541.33H781.329C791.998 541.33 799.998 533.33 799.998 522.668V519.999C789.329 461.33 741.329 415.999 679.998 410.668V346.668C679.998 335.999 671.998 327.999 658.667 325.33H618.667C607.998 325.33 599.998 333.33 597.329 346.668V407.999C517.329 418.668 466.667 471.999 466.667 538.668C466.667 626.668 519.998 661.33 631.998 674.668C706.667 687.999 730.667 703.999 730.667 746.668C730.667 789.337 693.329 818.668 642.667 818.668C573.329 818.668 549.329 789.33 541.329 749.33C538.667 738.668 530.667 733.33 522.667 733.33H477.329C466.667 733.33 458.667 741.33 458.667 751.999V754.668C469.329 821.33 511.998 869.33 599.998 882.668V946.668C599.998 957.33 607.998 965.33 621.329 967.999H661.329C671.998 967.999 679.998 959.999 682.667 946.668V882.668C762.667 869.33 815.998 813.33 815.998 741.33V741.33Z" fill="white"/>
<path fill-rule="evenodd" clip-rule="evenodd" d="M266.668 509.331C189.33 714.669 295.999 946.669 503.999 1021.33C511.999 1026.67 519.999 1037.33 519.999 1045.33V1082.67C519.999 1088 519.999 1090.67 517.33 1093.33C514.668 1104 503.999 1109.33 493.33 1104C343.999 1056 229.33 941.331 181.33 792C101.33 538.669 239.999 269.331 493.33 189.331C495.999 186.669 501.33 186.669 503.999 186.669C514.668 189.331 519.999 197.331 519.999 208V245.331C519.999 258.669 514.668 266.669 503.999 272C394.668 312 306.668 397.331 266.668 509.331ZM762.668 200C765.33 189.331 775.999 184 786.668 189.331C933.331 237.331 1050.67 352 1098.67 504C1178.67 757.331 1040 1026.67 786.668 1106.67C783.999 1109.33 778.668 1109.33 775.999 1109.33C765.33 1106.67 759.999 1098.67 759.999 1088V1050.67C759.999 1037.33 765.33 1029.33 775.999 1024C885.33 984 973.33 898.669 1013.33 786.669C1090.67 581.331 983.999 349.331 775.999 274.669C767.999 269.331 759.999 258.669 759.999 248V210.669C759.999 205.331 759.999 202.669 762.668 200Z" fill="white"/>
<ellipse cx="896" cy="1045.33" rx="154.667" ry="154.667" fill="#00EF8B"/>
<path d="M963.877 1021.14H920.199V1064.82H963.877V1021.14Z" fill="white"/>
<path d="M876.561 1081.18C876.561 1084.42 875.6 1087.59 873.798 1090.29C871.997 1092.99 869.436 1095.09 866.441 1096.33C863.445 1097.57 860.148 1097.89 856.968 1097.26C853.788 1096.63 850.867 1095.07 848.574 1092.77C846.281 1090.48 844.72 1087.56 844.087 1084.38C843.454 1081.2 843.779 1077.9 845.02 1074.91C846.261 1071.91 848.362 1069.35 851.058 1067.55C853.754 1065.75 856.924 1064.79 860.167 1064.79H876.561V1021.14H860.167C848.292 1021.14 836.683 1024.66 826.809 1031.26C816.936 1037.86 809.24 1047.23 804.695 1058.21C800.151 1069.18 798.962 1081.25 801.279 1092.9C803.595 1104.54 809.314 1115.24 817.711 1123.64C826.108 1132.03 836.806 1137.75 848.453 1140.07C860.1 1142.39 872.172 1141.2 883.144 1136.65C894.115 1132.11 903.492 1124.41 910.089 1114.54C916.687 1104.67 920.208 1093.06 920.208 1081.18V1064.79H876.561V1081.18Z" fill="white"/>
<path d="M936.593 999.303H985.715V955.625H936.593C920.674 955.641 905.412 961.972 894.156 973.229C882.899 984.485 876.568 999.748 876.552 1015.67V1021.14H920.199V1015.67C920.207 1011.32 921.938 1007.16 925.012 1004.09C928.085 1001.03 932.251 999.303 936.593 999.303V999.303Z" fill="white"/>
<path d="M876.552 1064.79H920.199V1021.14H876.552V1064.79Z" fill="#00EF8B"/>
</svg>
